<svg width="894" height="234" viewBox="0 0 894 234" fill="none" xmlns="http://www.w3.org/2000/svg">
<path fill-rule="evenodd" clip-rule="evenodd" d="M81.2361 158.563C79.76 158.563 78.6893 157.173 79.0817 155.767L97.9303 88.2079C98.736 85.3199 102.155 84.0453 104.69 85.6881L129.491 101.76C130.978 102.724 132.9 102.725 134.387 101.764L159.294 85.6793C161.831 84.0407 165.248 85.32 166.049 88.2086L184.799 155.77C185.19 157.175 184.119 158.563 182.644 158.563H158.705C163.063 153.576 165.461 147.207 165.461 140.618V139.849C165.461 133.404 163.089 127.179 158.787 122.335L155.715 107.095C155.534 106.2 154.739 105.555 153.815 105.555C153.396 105.555 152.988 105.689 152.653 105.938L141.07 114.523C140.245 115.135 139.178 115.329 138.186 115.049C134.103 113.896 129.774 113.896 125.69 115.049C124.698 115.329 123.632 115.135 122.807 114.523L111.218 105.934C110.887 105.688 110.483 105.555 110.068 105.555C109.143 105.555 108.35 106.207 108.182 107.105L105.201 123.03C100.852 127.401 98.4154 133.285 98.4154 139.415V140.871C98.4154 147.299 100.742 153.515 104.975 158.395L105.12 158.563H81.2361Z" fill="#29E154"/>
<path d="M126.884 129.348V145.809H119.146L119.181 145.275L120.196 129.814L120.228 129.348H126.884Z" fill="black" stroke="white"/>
<path d="M137.038 129.348V145.809H144.776L144.741 145.275L143.726 129.814L143.694 129.348H137.038Z" fill="black" stroke="white"/>
<mask id="path-4-outside-1_3115_652" maskUnits="userSpaceOnUse" x="203.883" y="95.7598" width="614" height="65" fill="black">
<rect fill="white" x="203.883" y="95.7598" width="614" height="65"/>
<path d="M213.703 99.8398V138.9H232.123L230.623 146.22H209.443C207.723 146.22 206.563 145.94 205.963 145.38C205.403 144.86 205.123 143.8 205.123 142.2V99.8398H213.703ZM271.786 128.46C271.786 132.86 270.786 136.7 268.786 139.98C265.946 144.62 261.446 146.94 255.286 146.94C250.246 146.94 246.246 145.34 243.286 142.14C240.366 138.98 238.906 134.68 238.906 129.24C238.906 124.8 239.886 120.98 241.846 117.78C244.686 113.1 249.206 110.76 255.406 110.76C260.486 110.76 264.486 112.34 267.406 115.5C270.326 118.66 271.786 122.98 271.786 128.46ZM263.446 128.82C263.446 124.74 262.806 121.82 261.526 120.06C260.246 118.26 258.146 117.36 255.226 117.36C252.506 117.36 250.486 118.3 249.166 120.18C247.846 122.06 247.186 124.94 247.186 128.82C247.186 132.82 247.846 135.74 249.166 137.58C250.446 139.38 252.506 140.28 255.346 140.28C258.146 140.28 260.186 139.38 261.466 137.58C262.786 135.74 263.446 132.82 263.446 128.82ZM283.635 146.22V114.36C285.355 113.44 287.455 112.64 289.935 111.96C292.895 111.16 295.755 110.76 298.515 110.76C303.595 110.76 307.335 111.9 309.735 114.18C312.095 116.42 313.275 119.94 313.275 124.74V146.22H305.175V125.64C305.175 124.08 305.135 122.94 305.055 122.22C304.935 121.14 304.675 120.26 304.275 119.58C303.395 118.1 301.475 117.36 298.515 117.36C296.195 117.36 293.935 117.7 291.735 118.38V146.22H283.635ZM353.558 112.74C354.678 113.22 355.438 113.72 355.838 114.24C356.238 114.76 356.438 115.54 356.438 116.58V139.26C356.438 146.18 355.158 151.2 352.598 154.32C349.958 157.52 345.718 159.12 339.878 159.12C334.358 159.12 330.018 158.48 326.858 157.2L328.178 150.72C331.938 151.76 335.958 152.26 340.238 152.22C345.158 152.14 347.758 149.46 348.038 144.18C345.798 145.3 343.458 145.86 341.018 145.86C335.978 145.86 332.038 144.28 329.198 141.12C326.438 138.08 325.058 133.96 325.058 128.76C325.058 123.48 326.658 119.18 329.858 115.86C333.138 112.46 337.438 110.76 342.758 110.76C347.118 110.96 350.718 111.62 353.558 112.74ZM333.758 128.82C333.758 132.34 334.418 134.9 335.738 136.5C337.098 138.14 339.298 138.96 342.338 138.96C344.698 138.96 346.578 138.48 347.978 137.52V118.62C346.298 117.98 344.498 117.66 342.578 117.66C339.498 117.66 337.238 118.62 335.798 120.54C334.438 122.34 333.758 125.1 333.758 128.82ZM402.363 135.9L405.483 142.26C401.843 145.22 396.863 146.78 390.543 146.94C383.463 146.94 378.003 144.84 374.163 140.64C370.443 136.56 368.583 130.88 368.583 123.6C368.703 117.64 369.863 112.94 372.063 109.5C374.543 105.74 377.503 103.1 380.943 101.58C384.863 99.9398 388.263 99.1598 391.143 99.2398C396.663 99.2798 401.363 100.6 405.243 103.2L402.543 109.8C399.463 107.68 395.643 106.62 391.083 106.62C386.883 106.62 383.543 108.18 381.063 111.3C378.663 114.34 377.463 118.34 377.463 123.3C377.463 128.54 378.623 132.56 380.943 135.36C383.223 138.12 386.583 139.5 391.023 139.5C393.463 139.5 395.743 139.1 397.863 138.3C399.303 137.74 400.803 136.94 402.363 135.9ZM427.357 110.76C431.717 110.76 435.177 111.74 437.737 113.7C440.297 115.66 441.577 118.32 441.577 121.68V143.34C438.017 145.46 432.757 146.66 425.797 146.94C421.797 146.94 418.637 145.94 416.317 143.94C413.997 141.94 412.837 139.2 412.837 135.72C412.837 132.4 414.137 129.7 416.737 127.62C419.337 125.54 422.857 124.38 427.297 124.14C429.217 124.06 431.357 124.12 433.717 124.32V121.74C433.717 120.34 433.137 119.26 431.977 118.5C430.817 117.74 429.137 117.36 426.937 117.36C423.377 117.36 419.237 118.12 414.517 119.64L415.897 113.04C419.497 111.52 423.317 110.76 427.357 110.76ZM426.697 140.28C429.657 140.28 431.997 139.98 433.717 139.38V130.5C431.397 130.3 429.417 130.26 427.777 130.38C423.417 130.78 421.217 132.44 421.177 135.36C421.177 137.12 421.617 138.38 422.497 139.14C423.377 139.9 424.777 140.28 426.697 140.28ZM466.471 139.98C468.511 140.1 470.851 139.74 473.491 138.9L472.051 145.8C469.491 146.56 466.911 146.94 464.311 146.94C461.311 146.94 459.131 146.06 457.771 144.3C456.411 142.54 455.731 139.78 455.731 136.02V117.78H450.811V111.42H455.731V100.92H463.891V111.42H472.711L471.451 117.78H463.891V135.6C463.891 137 464.071 138.04 464.431 138.72C464.831 139.52 465.511 139.94 466.471 139.98ZM480.494 121.26H508.514V128.04H480.494V121.26ZM555.397 146.22H546.517L543.457 134.82H527.677L524.437 146.22H515.497L530.017 99.8398H537.637C538.957 99.8398 539.877 99.9998 540.397 100.32C540.957 100.64 541.397 101.32 541.717 102.36L555.397 146.22ZM535.657 106.98L529.777 127.5H541.477L536.977 110.76L535.897 106.98H535.657ZM592.85 111.42V143.34C588.13 145.74 583.21 146.94 578.09 146.94C573.09 146.94 569.43 145.82 567.11 143.58C564.75 141.3 563.57 137.76 563.57 132.96V111.42H571.67V132.06C571.67 135.1 571.95 137.1 572.51 138.06C573.35 139.54 575.21 140.28 578.09 140.28C580.81 140.28 583.03 139.96 584.75 139.32V111.42H592.85ZM634.966 97.4998V143.4C630.246 145.76 625.326 146.94 620.206 146.94C615.206 146.94 611.286 145.32 608.446 142.08C605.606 138.84 604.186 134.38 604.186 128.7C604.186 124.34 605.206 120.58 607.246 117.42C610.126 112.98 614.566 110.76 620.566 110.76C622.686 110.76 624.786 111.04 626.866 111.6V97.4998H634.966ZM621.106 117.36C618.106 117.36 615.906 118.26 614.506 120.06C613.106 121.86 612.406 124.62 612.406 128.34C612.486 136.3 615.126 140.28 620.326 140.28C622.406 140.28 624.586 139.96 626.866 139.32V118.44C625.666 117.72 623.746 117.36 621.106 117.36ZM656.733 101.04V106.8H648.033V98.5198H653.853C655.733 98.5598 656.693 99.3998 656.733 101.04ZM656.433 146.22H648.333V111.42H656.433V146.22ZM701.306 128.46C701.306 132.86 700.306 136.7 698.306 139.98C695.466 144.62 690.966 146.94 684.806 146.94C679.766 146.94 675.766 145.34 672.806 142.14C669.886 138.98 668.426 134.68 668.426 129.24C668.426 124.8 669.406 120.98 671.366 117.78C674.206 113.1 678.726 110.76 684.926 110.76C690.006 110.76 694.006 112.34 696.926 115.5C699.846 118.66 701.306 122.98 701.306 128.46ZM692.966 128.82C692.966 124.74 692.326 121.82 691.046 120.06C689.766 118.26 687.666 117.36 684.746 117.36C682.026 117.36 680.006 118.3 678.686 120.18C677.366 122.06 676.706 124.94 676.706 128.82C676.706 132.82 677.366 135.74 678.686 137.58C679.966 139.38 682.026 140.28 684.866 140.28C687.666 140.28 689.706 139.38 690.986 137.58C692.306 135.74 692.966 132.82 692.966 128.82ZM713.335 142.44V99.9598C717.535 99.6798 721.735 99.5398 725.935 99.5398C733.135 99.5398 738.755 100.78 742.795 103.26C748.755 106.9 751.735 113.32 751.735 122.52C751.735 132.44 748.655 139.28 742.495 143.04C738.655 145.4 733.215 146.58 726.175 146.58C721.655 146.58 718.815 146.52 717.655 146.4C715.895 146.32 714.735 146.02 714.175 145.5C713.615 144.98 713.335 143.96 713.335 142.44ZM742.795 122.94C742.795 116.58 741.255 112.2 738.175 109.8C735.895 108 732.115 107.02 726.835 106.86C725.315 106.82 723.695 106.84 721.975 106.92V139.14C723.815 139.22 725.655 139.24 727.495 139.2C732.575 139.08 736.295 137.94 738.655 135.78C741.415 133.26 742.795 128.98 742.795 122.94ZM772.458 101.04V106.8H763.758V98.5198H769.578C771.458 98.5598 772.418 99.3998 772.458 101.04ZM772.158 146.22H764.058V111.42H772.158V146.22ZM780.071 99.8398H816.491L814.991 107.16H802.211V146.22H793.571V107.16H780.071V99.8398Z"/>
</mask>
<path d="M213.703 99.8398V138.9H232.123L230.623 146.22H209.443C207.723 146.22 206.563 145.94 205.963 145.38C205.403 144.86 205.123 143.8 205.123 142.2V99.8398H213.703ZM271.786 128.46C271.786 132.86 270.786 136.7 268.786 139.98C265.946 144.62 261.446 146.94 255.286 146.94C250.246 146.94 246.246 145.34 243.286 142.14C240.366 138.98 238.906 134.68 238.906 129.24C238.906 124.8 239.886 120.98 241.846 117.78C244.686 113.1 249.206 110.76 255.406 110.76C260.486 110.76 264.486 112.34 267.406 115.5C270.326 118.66 271.786 122.98 271.786 128.46ZM263.446 128.82C263.446 124.74 262.806 121.82 261.526 120.06C260.246 118.26 258.146 117.36 255.226 117.36C252.506 117.36 250.486 118.3 249.166 120.18C247.846 122.06 247.186 124.94 247.186 128.82C247.186 132.82 247.846 135.74 249.166 137.58C250.446 139.38 252.506 140.28 255.346 140.28C258.146 140.28 260.186 139.38 261.466 137.58C262.786 135.74 263.446 132.82 263.446 128.82ZM283.635 146.22V114.36C285.355 113.44 287.455 112.64 289.935 111.96C292.895 111.16 295.755 110.76 298.515 110.76C303.595 110.76 307.335 111.9 309.735 114.18C312.095 116.42 313.275 119.94 313.275 124.74V146.22H305.175V125.64C305.175 124.08 305.135 122.94 305.055 122.22C304.935 121.14 304.675 120.26 304.275 119.58C303.395 118.1 301.475 117.36 298.515 117.36C296.195 117.36 293.935 117.7 291.735 118.38V146.22H283.635ZM353.558 112.74C354.678 113.22 355.438 113.72 355.838 114.24C356.238 114.76 356.438 115.54 356.438 116.58V139.26C356.438 146.18 355.158 151.2 352.598 154.32C349.958 157.52 345.718 159.12 339.878 159.12C334.358 159.12 330.018 158.48 326.858 157.2L328.178 150.72C331.938 151.76 335.958 152.26 340.238 152.22C345.158 152.14 347.758 149.46 348.038 144.18C345.798 145.3 343.458 145.86 341.018 145.86C335.978 145.86 332.038 144.28 329.198 141.12C326.438 138.08 325.058 133.96 325.058 128.76C325.058 123.48 326.658 119.18 329.858 115.86C333.138 112.46 337.438 110.76 342.758 110.76C347.118 110.96 350.718 111.62 353.558 112.74ZM333.758 128.82C333.758 132.34 334.418 134.9 335.738 136.5C337.098 138.14 339.298 138.96 342.338 138.96C344.698 138.96 346.578 138.48 347.978 137.52V118.62C346.298 117.98 344.498 117.66 342.578 117.66C339.498 117.66 337.238 118.62 335.798 120.54C334.438 122.34 333.758 125.1 333.758 128.82ZM402.363 135.9L405.483 142.26C401.843 145.22 396.863 146.78 390.543 146.94C383.463 146.94 378.003 144.84 374.163 140.64C370.443 136.56 368.583 130.88 368.583 123.6C368.703 117.64 369.863 112.94 372.063 109.5C374.543 105.74 377.503 103.1 380.943 101.58C384.863 99.9398 388.263 99.1598 391.143 99.2398C396.663 99.2798 401.363 100.6 405.243 103.2L402.543 109.8C399.463 107.68 395.643 106.62 391.083 106.62C386.883 106.62 383.543 108.18 381.063 111.3C378.663 114.34 377.463 118.34 377.463 123.3C377.463 128.54 378.623 132.56 380.943 135.36C383.223 138.12 386.583 139.5 391.023 139.5C393.463 139.5 395.743 139.1 397.863 138.3C399.303 137.74 400.803 136.94 402.363 135.9ZM427.357 110.76C431.717 110.76 435.177 111.74 437.737 113.7C440.297 115.66 441.577 118.32 441.577 121.68V143.34C438.017 145.46 432.757 146.66 425.797 146.94C421.797 146.94 418.637 145.94 416.317 143.94C413.997 141.94 412.837 139.2 412.837 135.72C412.837 132.4 414.137 129.7 416.737 127.62C419.337 125.54 422.857 124.38 427.297 124.14C429.217 124.06 431.357 124.12 433.717 124.32V121.74C433.717 120.34 433.137 119.26 431.977 118.5C430.817 117.74 429.137 117.36 426.937 117.36C423.377 117.36 419.237 118.12 414.517 119.64L415.897 113.04C419.497 111.52 423.317 110.76 427.357 110.76ZM426.697 140.28C429.657 140.28 431.997 139.98 433.717 139.38V130.5C431.397 130.3 429.417 130.26 427.777 130.38C423.417 130.78 421.217 132.44 421.177 135.36C421.177 137.12 421.617 138.38 422.497 139.14C423.377 139.9 424.777 140.28 426.697 140.28ZM466.471 139.98C468.511 140.1 470.851 139.74 473.491 138.9L472.051 145.8C469.491 146.56 466.911 146.94 464.311 146.94C461.311 146.94 459.131 146.06 457.771 144.3C456.411 142.54 455.731 139.78 455.731 136.02V117.78H450.811V111.42H455.731V100.92H463.891V111.42H472.711L471.451 117.78H463.891V135.6C463.891 137 464.071 138.04 464.431 138.72C464.831 139.52 465.511 139.94 466.471 139.98ZM480.494 121.26H508.514V128.04H480.494V121.26ZM555.397 146.22H546.517L543.457 134.82H527.677L524.437 146.22H515.497L530.017 99.8398H537.637C538.957 99.8398 539.877 99.9998 540.397 100.32C540.957 100.64 541.397 101.32 541.717 102.36L555.397 146.22ZM535.657 106.98L529.777 127.5H541.477L536.977 110.76L535.897 106.98H535.657ZM592.85 111.42V143.34C588.13 145.74 583.21 146.94 578.09 146.94C573.09 146.94 569.43 145.82 567.11 143.58C564.75 141.3 563.57 137.76 563.57 132.96V111.42H571.67V132.06C571.67 135.1 571.95 137.1 572.51 138.06C573.35 139.54 575.21 140.28 578.09 140.28C580.81 140.28 583.03 139.96 584.75 139.32V111.42H592.85ZM634.966 97.4998V143.4C630.246 145.76 625.326 146.94 620.206 146.94C615.206 146.94 611.286 145.32 608.446 142.08C605.606 138.84 604.186 134.38 604.186 128.7C604.186 124.34 605.206 120.58 607.246 117.42C610.126 112.98 614.566 110.76 620.566 110.76C622.686 110.76 624.786 111.04 626.866 111.6V97.4998H634.966ZM621.106 117.36C618.106 117.36 615.906 118.26 614.506 120.06C613.106 121.86 612.406 124.62 612.406 128.34C612.486 136.3 615.126 140.28 620.326 140.28C622.406 140.28 624.586 139.96 626.866 139.32V118.44C625.666 117.72 623.746 117.36 621.106 117.36ZM656.733 101.04V106.8H648.033V98.5198H653.853C655.733 98.5598 656.693 99.3998 656.733 101.04ZM656.433 146.22H648.333V111.42H656.433V146.22ZM701.306 128.46C701.306 132.86 700.306 136.7 698.306 139.98C695.466 144.62 690.966 146.94 684.806 146.94C679.766 146.94 675.766 145.34 672.806 142.14C669.886 138.98 668.426 134.68 668.426 129.24C668.426 124.8 669.406 120.98 671.366 117.78C674.206 113.1 678.726 110.76 684.926 110.76C690.006 110.76 694.006 112.34 696.926 115.5C699.846 118.66 701.306 122.98 701.306 128.46ZM692.966 128.82C692.966 124.74 692.326 121.82 691.046 120.06C689.766 118.26 687.666 117.36 684.746 117.36C682.026 117.36 680.006 118.3 678.686 120.18C677.366 122.06 676.706 124.94 676.706 128.82C676.706 132.82 677.366 135.74 678.686 137.58C679.966 139.38 682.026 140.28 684.866 140.28C687.666 140.28 689.706 139.38 690.986 137.58C692.306 135.74 692.966 132.82 692.966 128.82ZM713.335 142.44V99.9598C717.535 99.6798 721.735 99.5398 725.935 99.5398C733.135 99.5398 738.755 100.78 742.795 103.26C748.755 106.9 751.735 113.32 751.735 122.52C751.735 132.44 748.655 139.28 742.495 143.04C738.655 145.4 733.215 146.58 726.175 146.58C721.655 146.58 718.815 146.52 717.655 146.4C715.895 146.32 714.735 146.02 714.175 145.5C713.615 144.98 713.335 143.96 713.335 142.44ZM742.795 122.94C742.795 116.58 741.255 112.2 738.175 109.8C735.895 108 732.115 107.02 726.835 106.86C725.315 106.82 723.695 106.84 721.975 106.92V139.14C723.815 139.22 725.655 139.24 727.495 139.2C732.575 139.08 736.295 137.94 738.655 135.78C741.415 133.26 742.795 128.98 742.795 122.94ZM772.458 101.04V106.8H763.758V98.5198H769.578C771.458 98.5598 772.418 99.3998 772.458 101.04ZM772.158 146.22H764.058V111.42H772.158V146.22ZM780.071 99.8398H816.491L814.991 107.16H802.211V146.22H793.571V107.16H780.071V99.8398Z" fill="black"/>
<path d="M213.703 99.8398H214.703V98.8398H213.703V99.8398ZM213.703 138.9H212.703V139.9H213.703V138.9ZM232.123 138.9L233.102 139.101L233.349 137.9H232.123V138.9ZM230.623 146.22V147.22H231.439L231.602 146.421L230.623 146.22ZM205.963 145.38L206.645 144.649L206.643 144.647L205.963 145.38ZM205.123 99.8398V98.8398H204.123V99.8398H205.123ZM213.703 99.8398H212.703V138.9H213.703H214.703V99.8398H213.703ZM213.703 138.9V139.9H232.123V138.9V137.9H213.703V138.9ZM232.123 138.9L231.143 138.699L229.643 146.019L230.623 146.22L231.602 146.421L233.102 139.101L232.123 138.9ZM230.623 146.22V145.22H209.443V146.22V147.22H230.623V146.22ZM209.443 146.22V145.22C208.63 145.22 207.995 145.153 207.517 145.038C207.034 144.921 206.775 144.77 206.645 144.649L205.963 145.38L205.28 146.111C205.751 146.55 206.372 146.819 207.048 146.982C207.731 147.147 208.535 147.22 209.443 147.22V146.22ZM205.963 145.38L206.643 144.647C206.55 144.56 206.411 144.362 206.3 143.939C206.189 143.521 206.123 142.949 206.123 142.2H205.123H204.123C204.123 143.05 204.196 143.808 204.366 144.45C204.534 145.088 204.816 145.679 205.282 146.113L205.963 145.38ZM205.123 142.2H206.123V99.8398H205.123H204.123V142.2H205.123ZM205.123 99.8398V100.84H213.703V99.8398V98.8398H205.123V99.8398ZM268.786 139.98L269.639 140.502L269.639 140.5L268.786 139.98ZM243.286 142.14L242.551 142.818L242.552 142.819L243.286 142.14ZM241.846 117.78L242.698 118.302L242.701 118.299L241.846 117.78ZM267.406 115.5L268.14 114.821V114.821L267.406 115.5ZM261.526 120.06L260.711 120.639L260.717 120.648L261.526 120.06ZM249.166 120.18L249.984 120.754V120.754L249.166 120.18ZM249.166 137.58L249.981 137L249.978 136.997L249.166 137.58ZM261.466 137.58L260.653 136.997L260.651 137L261.466 137.58ZM271.786 128.46H270.786C270.786 132.703 269.823 136.358 267.932 139.459L268.786 139.98L269.639 140.5C271.748 137.042 272.786 133.016 272.786 128.46H271.786ZM268.786 139.98L267.933 139.458C265.301 143.757 261.152 145.94 255.286 145.94V146.94V147.94C261.739 147.94 266.59 145.483 269.639 140.502L268.786 139.98ZM255.286 146.94V145.94C250.477 145.94 246.76 144.424 244.02 141.461L243.286 142.14L242.552 142.819C245.731 146.256 250.015 147.94 255.286 147.94V146.94ZM243.286 142.14L244.02 141.461C241.313 138.531 239.906 134.497 239.906 129.24H238.906H237.906C237.906 134.862 239.419 139.428 242.551 142.818L243.286 142.14ZM238.906 129.24H239.906C239.906 124.95 240.851 121.318 242.698 118.302L241.846 117.78L240.993 117.257C238.92 120.641 237.906 124.65 237.906 129.24H238.906ZM241.846 117.78L242.701 118.299C245.332 113.962 249.5 111.76 255.406 111.76V110.76V109.76C248.911 109.76 244.039 112.238 240.991 117.261L241.846 117.78ZM255.406 110.76V111.76C260.262 111.76 263.975 113.26 266.671 116.178L267.406 115.5L268.14 114.821C264.996 111.419 260.71 109.76 255.406 109.76V110.76ZM267.406 115.5L266.671 116.178C269.377 119.107 270.786 123.16 270.786 128.46H271.786H272.786C272.786 122.8 271.274 118.212 268.14 114.821L267.406 115.5ZM263.446 128.82H264.446C264.446 124.687 263.808 121.497 262.334 119.472L261.526 120.06L260.717 120.648C261.804 122.142 262.446 124.792 262.446 128.82H263.446ZM261.526 120.06L262.341 119.48C260.815 117.335 258.355 116.36 255.226 116.36V117.36V118.36C257.936 118.36 259.676 119.184 260.711 120.639L261.526 120.06ZM255.226 117.36V116.36C252.248 116.36 249.891 117.407 248.347 119.605L249.166 120.18L249.984 120.754C251.081 119.193 252.763 118.36 255.226 118.36V117.36ZM249.166 120.18L248.347 119.605C246.852 121.734 246.186 124.861 246.186 128.82H247.186H248.186C248.186 125.018 248.839 122.386 249.984 120.754L249.166 120.18ZM247.186 128.82H246.186C246.186 132.887 246.849 136.066 248.353 138.163L249.166 137.58L249.978 136.997C248.842 135.414 248.186 132.752 248.186 128.82H247.186ZM249.166 137.58L248.351 138.159C249.871 140.297 252.285 141.28 255.346 141.28V140.28V139.28C252.727 139.28 251.021 138.463 249.981 137L249.166 137.58ZM255.346 140.28V141.28C258.373 141.28 260.763 140.293 262.281 138.159L261.466 137.58L260.651 137C259.608 138.466 257.919 139.28 255.346 139.28V140.28ZM261.466 137.58L262.278 138.163C263.783 136.066 264.446 132.887 264.446 128.82H263.446H262.446C262.446 132.752 261.789 135.414 260.653 136.997L261.466 137.58ZM283.635 146.22H282.635V147.22H283.635V146.22ZM283.635 114.36L283.163 113.478L282.635 113.761V114.36H283.635ZM289.935 111.96L289.674 110.994L289.67 110.995L289.935 111.96ZM309.735 114.18L309.046 114.905L309.046 114.905L309.735 114.18ZM313.275 146.22V147.22H314.275V146.22H313.275ZM305.175 146.22H304.175V147.22H305.175V146.22ZM305.055 122.22L306.049 122.109V122.109L305.055 122.22ZM304.275 119.58L305.137 119.073L305.134 119.069L304.275 119.58ZM291.735 118.38L291.439 117.424L290.735 117.642V118.38H291.735ZM291.735 146.22V147.22H292.735V146.22H291.735ZM283.635 146.22H284.635V114.36H283.635H282.635V146.22H283.635ZM283.635 114.36L284.106 115.242C285.744 114.366 287.77 113.59 290.199 112.924L289.935 111.96L289.67 110.995C287.14 111.689 284.966 112.514 283.163 113.478L283.635 114.36ZM289.935 111.96L290.196 112.925C293.08 112.146 295.852 111.76 298.515 111.76V110.76V109.76C295.657 109.76 292.71 110.174 289.674 110.994L289.935 111.96ZM298.515 110.76V111.76C303.472 111.76 306.91 112.876 309.046 114.905L309.735 114.18L310.423 113.455C307.759 110.924 303.718 109.76 298.515 109.76V110.76ZM309.735 114.18L309.046 114.905C311.129 116.882 312.275 120.083 312.275 124.74H313.275H314.275C314.275 119.796 313.06 115.958 310.423 113.454L309.735 114.18ZM313.275 124.74H312.275V146.22H313.275H314.275V124.74H313.275ZM313.275 146.22V145.22H305.175V146.22V147.22H313.275V146.22ZM305.175 146.22H306.175V125.64H305.175H304.175V146.22H305.175ZM305.175 125.64H306.175C306.175 124.075 306.135 122.888 306.049 122.109L305.055 122.22L304.061 122.33C304.134 122.992 304.175 124.085 304.175 125.64H305.175ZM305.055 122.22L306.049 122.109C305.919 120.939 305.63 119.911 305.137 119.073L304.275 119.58L303.413 120.087C303.72 120.609 303.951 121.341 304.061 122.33L305.055 122.22ZM304.275 119.58L305.134 119.069C303.973 117.115 301.569 116.36 298.515 116.36V117.36V118.36C301.38 118.36 302.817 119.084 303.415 120.091L304.275 119.58ZM298.515 117.36V116.36C296.095 116.36 293.736 116.715 291.439 117.424L291.735 118.38L292.03 119.335C294.134 118.685 296.294 118.36 298.515 118.36V117.36ZM291.735 118.38H290.735V146.22H291.735H292.735V118.38H291.735ZM291.735 146.22V145.22H283.635V146.22V147.22H291.735V146.22ZM353.558 112.74L353.952 111.821L353.939 111.815L353.925 111.809L353.558 112.74ZM355.838 114.24L356.631 113.63V113.63L355.838 114.24ZM352.598 154.32L353.37 154.956L353.371 154.954L352.598 154.32ZM326.858 157.2L325.878 157L325.712 157.815L326.483 158.127L326.858 157.2ZM328.178 150.72L328.445 149.756L327.412 149.47L327.198 150.52L328.178 150.72ZM340.238 152.22L340.247 153.22L340.254 153.22L340.238 152.22ZM348.038 144.18L349.037 144.233L349.128 142.517L347.591 143.285L348.038 144.18ZM329.198 141.12L329.942 140.451L329.939 140.448L329.198 141.12ZM329.858 115.86L329.138 115.165L329.138 115.166L329.858 115.86ZM342.758 110.76L342.804 109.761L342.781 109.76H342.758V110.76ZM335.738 136.5L334.967 137.136L334.968 137.138L335.738 136.5ZM347.978 137.52L348.544 138.344L348.978 138.047V137.52H347.978ZM347.978 118.62H348.978V117.931L348.334 117.685L347.978 118.62ZM335.798 120.54L336.596 121.143L336.598 121.14L335.798 120.54ZM353.558 112.74L353.164 113.659C354.241 114.12 354.805 114.537 355.046 114.849L355.838 114.24L356.631 113.63C356.071 112.902 355.116 112.319 353.952 111.821L353.558 112.74ZM355.838 114.24L355.046 114.849C355.253 115.119 355.438 115.64 355.438 116.58H356.438H357.438C357.438 115.44 357.224 114.401 356.631 113.63L355.838 114.24ZM356.438 116.58H355.438V139.26H356.438H357.438V116.58H356.438ZM356.438 139.26H355.438C355.438 146.099 354.165 150.833 351.825 153.685L352.598 154.32L353.371 154.954C356.151 151.566 357.438 146.261 357.438 139.26H356.438ZM352.598 154.32L351.827 153.683C349.445 156.57 345.547 158.12 339.878 158.12V159.12V160.12C345.889 160.12 350.471 158.469 353.37 154.956L352.598 154.32ZM339.878 159.12V158.12C334.417 158.12 330.223 157.484 327.234 156.273L326.858 157.2L326.483 158.127C329.813 159.476 334.299 160.12 339.878 160.12V159.12ZM326.858 157.2L327.838 157.399L329.158 150.919L328.178 150.72L327.198 150.52L325.878 157L326.858 157.2ZM328.178 150.72L327.912 151.684C331.77 152.751 335.883 153.261 340.247 153.22L340.238 152.22L340.229 151.22C336.033 151.259 332.107 150.769 328.445 149.756L328.178 150.72ZM340.238 152.22L340.254 153.22C342.892 153.177 345.058 152.431 346.596 150.846C348.123 149.272 348.889 147.015 349.037 144.233L348.038 144.18L347.04 144.127C346.907 146.625 346.234 148.347 345.16 149.453C344.098 150.549 342.504 151.183 340.222 151.22L340.238 152.22ZM348.038 144.18L347.591 143.285C345.486 144.338 343.299 144.86 341.018 144.86V145.86V146.86C343.618 146.86 346.11 146.262 348.485 145.074L348.038 144.18ZM341.018 145.86V144.86C336.204 144.86 332.557 143.361 329.942 140.451L329.198 141.12L328.454 141.788C331.519 145.199 335.752 146.86 341.018 146.86V145.86ZM329.198 141.12L329.939 140.448C327.387 137.637 326.058 133.78 326.058 128.76H325.058H324.058C324.058 134.14 325.49 138.523 328.458 141.792L329.198 141.12ZM325.058 128.76H326.058C326.058 123.698 327.584 119.66 330.578 116.554L329.858 115.86L329.138 115.166C325.732 118.699 324.058 123.261 324.058 128.76H325.058ZM329.858 115.86L330.578 116.554C333.645 113.375 337.672 111.76 342.758 111.76V110.76V109.76C337.204 109.76 332.631 111.545 329.138 115.165L329.858 115.86ZM342.758 110.76L342.712 111.759C347.005 111.956 350.487 112.604 353.191 113.67L353.558 112.74L353.925 111.809C350.949 110.636 347.231 109.964 342.804 109.761L342.758 110.76ZM333.758 128.82H332.758C332.758 132.424 333.426 135.269 334.967 137.136L335.738 136.5L336.509 135.863C335.41 134.531 334.758 132.255 334.758 128.82H333.758ZM335.738 136.5L334.968 137.138C336.589 139.092 339.132 139.96 342.338 139.96V138.96V137.96C339.464 137.96 337.607 137.187 336.508 135.861L335.738 136.5ZM342.338 138.96V139.96C344.824 139.96 346.924 139.455 348.544 138.344L347.978 137.52L347.413 136.695C346.233 137.504 344.573 137.96 342.338 137.96V138.96ZM347.978 137.52H348.978V118.62H347.978H346.978V137.52H347.978ZM347.978 118.62L348.334 117.685C346.533 116.999 344.611 116.66 342.578 116.66V117.66V118.66C344.385 118.66 346.063 118.96 347.622 119.554L347.978 118.62ZM342.578 117.66V116.66C339.281 116.66 336.679 117.699 334.998 119.94L335.798 120.54L336.598 121.14C337.797 119.541 339.715 118.66 342.578 118.66V117.66ZM335.798 120.54L335 119.937C333.448 121.991 332.758 125.011 332.758 128.82H333.758H334.758C334.758 125.188 335.428 122.688 336.596 121.143L335.798 120.54ZM402.363 135.9L403.261 135.459L402.758 134.435L401.808 135.068L402.363 135.9ZM405.483 142.26L406.114 143.036L406.731 142.534L406.381 141.819L405.483 142.26ZM390.543 146.94V147.94H390.556L390.568 147.939L390.543 146.94ZM374.163 140.64L373.424 141.314L373.425 141.315L374.163 140.64ZM368.583 123.6L367.583 123.58L367.583 123.59V123.6H368.583ZM372.063 109.5L371.228 108.949L371.221 108.961L372.063 109.5ZM380.943 101.58L380.557 100.657L380.548 100.661L380.539 100.665L380.943 101.58ZM391.143 99.2398L391.115 100.239L391.125 100.24L391.136 100.24L391.143 99.2398ZM405.243 103.2L406.169 103.578L406.477 102.823L405.8 102.369L405.243 103.2ZM402.543 109.8L401.976 110.623L402.999 111.327L403.469 110.178L402.543 109.8ZM381.063 111.3L380.28 110.678L380.278 110.68L381.063 111.3ZM380.943 135.36L381.714 134.723L381.713 134.722L380.943 135.36ZM397.863 138.3L398.216 139.235L398.225 139.232L397.863 138.3ZM402.363 135.9L401.465 136.34L404.585 142.7L405.483 142.26L406.381 141.819L403.261 135.459L402.363 135.9ZM405.483 142.26L404.852 141.484C401.435 144.263 396.693 145.784 390.518 145.94L390.543 146.94L390.568 147.939C397.033 147.776 402.251 146.177 406.114 143.036L405.483 142.26ZM390.543 146.94V145.94C383.67 145.94 378.507 143.909 374.901 139.965L374.163 140.64L373.425 141.315C377.499 145.77 383.256 147.94 390.543 147.94V146.94ZM374.163 140.64L374.902 139.966C371.398 136.123 369.583 130.712 369.583 123.6H368.583H367.583C367.583 131.048 369.488 136.997 373.424 141.314L374.163 140.64ZM368.583 123.6L369.583 123.62C369.701 117.764 370.84 113.268 372.905 110.039L372.063 109.5L371.221 108.961C368.886 112.612 367.705 117.515 367.583 123.58L368.583 123.6ZM372.063 109.5L372.898 110.05C375.293 106.418 378.115 103.923 381.347 102.494L380.943 101.58L380.539 100.665C376.891 102.277 373.793 105.061 371.228 108.949L372.063 109.5ZM380.943 101.58L381.329 102.502C385.175 100.893 388.428 100.165 391.115 100.239L391.143 99.2398L391.171 98.2402C388.098 98.1548 384.551 98.9863 380.557 100.657L380.943 101.58ZM391.143 99.2398L391.136 100.24C396.496 100.279 400.997 101.558 404.686 104.03L405.243 103.2L405.8 102.369C401.729 99.6415 396.83 98.2809 391.15 98.2398L391.143 99.2398ZM405.243 103.2L404.317 102.821L401.617 109.421L402.543 109.8L403.469 110.178L406.169 103.578L405.243 103.2ZM402.543 109.8L403.11 108.976C399.83 106.718 395.8 105.62 391.083 105.62V106.62V107.62C395.486 107.62 399.096 108.641 401.976 110.623L402.543 109.8ZM391.083 106.62V105.62C386.597 105.62 382.961 107.304 380.28 110.678L381.063 111.3L381.846 111.922C384.125 109.055 387.169 107.62 391.083 107.62V106.62ZM381.063 111.3L380.278 110.68C377.704 113.941 376.463 118.179 376.463 123.3H377.463H378.463C378.463 118.501 379.622 114.739 381.848 111.919L381.063 111.3ZM377.463 123.3H376.463C376.463 128.672 377.651 132.954 380.173 135.998L380.943 135.36L381.713 134.722C379.595 132.166 378.463 128.407 378.463 123.3H377.463ZM380.943 135.36L380.172 135.997C382.687 139.041 386.363 140.5 391.023 140.5V139.5V138.5C386.803 138.5 383.759 137.199 381.714 134.723L380.943 135.36ZM391.023 139.5V140.5C393.574 140.5 395.975 140.081 398.216 139.235L397.863 138.3L397.51 137.364C395.511 138.118 393.352 138.5 391.023 138.5V139.5ZM397.863 138.3L398.225 139.232C399.745 138.641 401.31 137.804 402.918 136.732L402.363 135.9L401.808 135.068C400.296 136.076 398.861 136.839 397.501 137.368L397.863 138.3ZM437.737 113.7L438.345 112.906V112.906L437.737 113.7ZM441.577 143.34L442.089 144.199L442.577 143.908V143.34H441.577ZM425.797 146.94V147.94H425.817L425.837 147.939L425.797 146.94ZM416.317 143.94L416.97 143.182L416.317 143.94ZM416.737 127.62L416.112 126.839V126.839L416.737 127.62ZM427.297 124.14L427.256 123.141L427.243 123.141L427.297 124.14ZM433.717 124.32L433.633 125.316L434.717 125.408V124.32H433.717ZM431.977 118.5L432.525 117.663V117.663L431.977 118.5ZM414.517 119.64L413.538 119.435L413.186 121.119L414.824 120.592L414.517 119.64ZM415.897 113.04L415.508 112.119L415.026 112.322L414.918 112.835L415.897 113.04ZM433.717 139.38L434.047 140.324L434.717 140.09V139.38H433.717ZM433.717 130.5H434.717V129.582L433.803 129.503L433.717 130.5ZM427.777 130.38L427.704 129.382L427.695 129.383L427.686 129.384L427.777 130.38ZM421.177 135.36L420.177 135.346V135.36H421.177ZM422.497 139.14L423.151 138.383V138.383L422.497 139.14ZM427.357 110.76V111.76C431.574 111.76 434.796 112.707 437.129 114.494L437.737 113.7L438.345 112.906C435.558 110.772 431.86 109.76 427.357 109.76V110.76ZM437.737 113.7L437.129 114.494C439.43 116.255 440.577 118.616 440.577 121.68H441.577H442.577C442.577 118.024 441.164 115.064 438.345 112.906L437.737 113.7ZM441.577 121.68H440.577V143.34H441.577H442.577V121.68H441.577ZM441.577 143.34L441.066 142.481C437.715 144.476 432.65 145.663 425.757 145.941L425.797 146.94L425.837 147.939C432.864 147.656 438.319 146.444 442.089 144.199L441.577 143.34ZM425.797 146.94V145.94C421.962 145.94 419.059 144.983 416.97 143.182L416.317 143.94L415.664 144.697C418.215 146.896 421.632 147.94 425.797 147.94V146.94ZM416.317 143.94L416.97 143.182C414.902 141.399 413.837 138.953 413.837 135.72H412.837H411.837C411.837 139.447 413.092 142.48 415.664 144.697L416.317 143.94ZM412.837 135.72H413.837C413.837 132.705 414.998 130.292 417.362 128.401L416.737 127.62L416.112 126.839C413.276 129.108 411.837 132.095 411.837 135.72H412.837ZM416.737 127.62L417.362 128.401C419.752 126.488 423.05 125.371 427.351 125.138L427.297 124.14L427.243 123.141C422.664 123.389 418.922 124.591 416.112 126.839L416.737 127.62ZM427.297 124.14L427.339 125.139C429.208 125.061 431.305 125.119 433.633 125.316L433.717 124.32L433.802 123.323C431.409 123.121 429.226 123.059 427.256 123.141L427.297 124.14ZM433.717 124.32H434.717V121.74H433.717H432.717V124.32H433.717ZM433.717 121.74H434.717C434.717 120.006 433.97 118.61 432.525 117.663L431.977 118.5L431.429 119.336C432.304 119.909 432.717 120.673 432.717 121.74H433.717ZM431.977 118.5L432.525 117.663C431.133 116.751 429.227 116.36 426.937 116.36V117.36V118.36C429.047 118.36 430.502 118.729 431.429 119.336L431.977 118.5ZM426.937 117.36V116.36C423.241 116.36 418.994 117.148 414.211 118.688L414.517 119.64L414.824 120.592C419.48 119.092 423.513 118.36 426.937 118.36V117.36ZM414.517 119.64L415.496 119.844L416.876 113.244L415.897 113.04L414.918 112.835L413.538 119.435L414.517 119.64ZM415.897 113.04L416.286 113.961C419.759 112.495 423.446 111.76 427.357 111.76V110.76V109.76C423.188 109.76 419.236 110.545 415.508 112.119L415.897 113.04ZM426.697 140.28V141.28C429.708 141.28 432.175 140.977 434.047 140.324L433.717 139.38L433.388 138.436C431.819 138.983 429.606 139.28 426.697 139.28V140.28ZM433.717 139.38H434.717V130.5H433.717H432.717V139.38H433.717ZM433.717 130.5L433.803 129.503C431.45 129.301 429.414 129.257 427.704 129.382L427.777 130.38L427.85 131.377C429.421 131.262 431.344 131.299 433.631 131.496L433.717 130.5ZM427.777 130.38L427.686 129.384C425.42 129.592 423.567 130.137 422.255 131.127C420.892 132.155 420.201 133.599 420.177 135.346L421.177 135.36L422.177 135.373C422.193 134.201 422.623 133.354 423.46 132.723C424.348 132.053 425.775 131.568 427.869 131.376L427.777 130.38ZM421.177 135.36H420.177C420.177 137.26 420.651 138.866 421.844 139.897L422.497 139.14L423.151 138.383C422.584 137.893 422.177 136.98 422.177 135.36H421.177ZM422.497 139.14L421.844 139.897C422.991 140.888 424.683 141.28 426.697 141.28V140.28V139.28C424.872 139.28 423.763 138.912 423.151 138.383L422.497 139.14ZM466.471 139.98L466.529 138.981L466.521 138.981L466.512 138.981L466.471 139.98ZM473.491 138.9L474.47 139.104L474.819 137.428L473.187 137.947L473.491 138.9ZM472.051 145.8L472.335 146.758L472.908 146.589L473.03 146.004L472.051 145.8ZM457.771 144.3L458.562 143.688V143.688L457.771 144.3ZM455.731 117.78H456.731V116.78H455.731V117.78ZM450.811 117.78H449.811V118.78H450.811V117.78ZM450.811 111.42V110.42H449.811V111.42H450.811ZM455.731 111.42V112.42H456.731V111.42H455.731ZM455.731 100.92V99.9198H454.731V100.92H455.731ZM463.891 100.92H464.891V99.9198H463.891V100.92ZM463.891 111.42H462.891V112.42H463.891V111.42ZM472.711 111.42L473.692 111.614L473.928 110.42H472.711V111.42ZM471.451 117.78V118.78H472.272L472.432 117.974L471.451 117.78ZM463.891 117.78V116.78H462.891V117.78H463.891ZM464.431 138.72L465.325 138.273L465.32 138.262L465.314 138.252L464.431 138.72ZM466.471 139.98L466.412 140.978C468.609 141.107 471.076 140.717 473.794 139.853L473.491 138.9L473.187 137.947C470.625 138.762 468.412 139.092 466.529 138.981L466.471 139.98ZM473.491 138.9L472.512 138.695L471.072 145.595L472.051 145.8L473.03 146.004L474.47 139.104L473.491 138.9ZM472.051 145.8L471.766 144.841C469.296 145.574 466.812 145.94 464.311 145.94V146.94V147.94C467.01 147.94 469.685 147.545 472.335 146.758L472.051 145.8ZM464.311 146.94V145.94C461.504 145.94 459.671 145.124 458.562 143.688L457.771 144.3L456.979 144.911C458.59 146.995 461.117 147.94 464.311 147.94V146.94ZM457.771 144.3L458.562 143.688C457.403 142.188 456.731 139.697 456.731 136.02H455.731H454.731C454.731 139.862 455.418 142.891 456.979 144.911L457.771 144.3ZM455.731 136.02H456.731V117.78H455.731H454.731V136.02H455.731ZM455.731 117.78V116.78H450.811V117.78V118.78H455.731V117.78ZM450.811 117.78H451.811V111.42H450.811H449.811V117.78H450.811ZM450.811 111.42V112.42H455.731V111.42V110.42H450.811V111.42ZM455.731 111.42H456.731V100.92H455.731H454.731V111.42H455.731ZM455.731 100.92V101.92H463.891V100.92V99.9198H455.731V100.92ZM463.891 100.92H462.891V111.42H463.891H464.891V100.92H463.891ZM463.891 111.42V112.42H472.711V111.42V110.42H463.891V111.42ZM472.711 111.42L471.73 111.225L470.47 117.585L471.451 117.78L472.432 117.974L473.692 111.614L472.711 111.42ZM471.451 117.78V116.78H463.891V117.78V118.78H471.451V117.78ZM463.891 117.78H462.891V135.6H463.891H464.891V117.78H463.891ZM463.891 135.6H462.891C462.891 137.05 463.071 138.289 463.547 139.188L464.431 138.72L465.314 138.252C465.07 137.791 464.891 136.95 464.891 135.6H463.891ZM464.431 138.72L463.536 139.167C463.809 139.713 464.199 140.167 464.715 140.486C465.228 140.802 465.812 140.953 466.429 140.979L466.471 139.98L466.512 138.981C466.169 138.966 465.933 138.887 465.766 138.784C465.603 138.683 465.452 138.527 465.325 138.273L464.431 138.72ZM480.494 121.26V120.26H479.494V121.26H480.494ZM508.514 121.26H509.514V120.26H508.514V121.26ZM508.514 128.04V129.04H509.514V128.04H508.514ZM480.494 128.04H479.494V129.04H480.494V128.04ZM480.494 121.26V122.26H508.514V121.26V120.26H480.494V121.26ZM508.514 121.26H507.514V128.04H508.514H509.514V121.26H508.514ZM508.514 128.04V127.04H480.494V128.04V129.04H508.514V128.04ZM480.494 128.04H481.494V121.26H480.494H479.494V128.04H480.494ZM555.397 146.22V147.22H556.756L556.351 145.922L555.397 146.22ZM546.517 146.22L545.551 146.479L545.75 147.22H546.517V146.22ZM543.457 134.82L544.423 134.561L544.224 133.82H543.457V134.82ZM527.677 134.82V133.82H526.921L526.715 134.546L527.677 134.82ZM524.437 146.22V147.22H525.192L525.399 146.493L524.437 146.22ZM515.497 146.22L514.542 145.921L514.136 147.22H515.497V146.22ZM530.017 99.8398V98.8398H529.282L529.062 99.541L530.017 99.8398ZM540.397 100.32L539.873 101.171L539.886 101.18L539.901 101.188L540.397 100.32ZM541.717 102.36L540.761 102.654L540.762 102.658L541.717 102.36ZM535.657 106.98V105.98H534.903L534.695 106.704L535.657 106.98ZM529.777 127.5L528.815 127.224L528.45 128.5H529.777V127.5ZM541.477 127.5V128.5H542.781L542.442 127.24L541.477 127.5ZM536.977 110.76L537.942 110.5L537.94 110.493L537.938 110.485L536.977 110.76ZM535.897 106.98L536.858 106.705L536.651 105.98H535.897V106.98ZM555.397 146.22V145.22H546.517V146.22V147.22H555.397V146.22ZM546.517 146.22L547.483 145.961L544.423 134.561L543.457 134.82L542.491 135.079L545.551 146.479L546.517 146.22ZM543.457 134.82V133.82H527.677V134.82V135.82H543.457V134.82ZM527.677 134.82L526.715 134.546L523.475 145.946L524.437 146.22L525.399 146.493L528.639 135.093L527.677 134.82ZM524.437 146.22V145.22H515.497V146.22V147.22H524.437V146.22ZM515.497 146.22L516.451 146.519L530.971 100.139L530.017 99.8398L529.062 99.541L514.542 145.921L515.497 146.22ZM530.017 99.8398V100.84H537.637V99.8398V98.8398H530.017V99.8398ZM537.637 99.8398V100.84C538.941 100.84 539.61 101.01 539.873 101.171L540.397 100.32L540.921 99.4681C540.143 98.9897 538.972 98.8398 537.637 98.8398V99.8398ZM540.397 100.32L539.901 101.188C540.131 101.32 540.468 101.701 540.761 102.654L541.717 102.36L542.673 102.066C542.326 100.938 541.783 99.96 540.893 99.4515L540.397 100.32ZM541.717 102.36L540.762 102.658L554.442 146.518L555.397 146.22L556.351 145.922L542.671 102.062L541.717 102.36ZM535.657 106.98L534.695 106.704L528.815 127.224L529.777 127.5L530.738 127.775L536.618 107.255L535.657 106.98ZM529.777 127.5V128.5H541.477V127.5V126.5H529.777V127.5ZM541.477 127.5L542.442 127.24L537.942 110.5L536.977 110.76L536.011 111.019L540.511 127.759L541.477 127.5ZM536.977 110.76L537.938 110.485L536.858 106.705L535.897 106.98L534.935 107.254L536.015 111.034L536.977 110.76ZM535.897 106.98V105.98H535.657V106.98V107.98H535.897V106.98ZM592.85 111.42H593.85V110.42H592.85V111.42ZM592.85 143.34L593.304 144.231L593.85 143.953V143.34H592.85ZM567.11 143.58L566.415 144.299L566.416 144.299L567.11 143.58ZM563.57 111.42V110.42H562.57V111.42H563.57ZM571.67 111.42H572.67V110.42H571.67V111.42ZM572.51 138.06L573.38 137.566L573.374 137.556L572.51 138.06ZM584.75 139.32L585.099 140.257L585.75 140.015V139.32H584.75ZM584.75 111.42V110.42H583.75V111.42H584.75ZM592.85 111.42H591.85V143.34H592.85H593.85V111.42H592.85ZM592.85 143.34L592.397 142.448C587.812 144.78 583.047 145.94 578.09 145.94V146.94V147.94C583.373 147.94 588.448 146.7 593.304 144.231L592.85 143.34ZM578.09 146.94V145.94C573.211 145.94 569.858 144.843 567.805 142.86L567.11 143.58L566.416 144.299C569.002 146.797 572.97 147.94 578.09 147.94V146.94ZM567.11 143.58L567.805 142.861C565.715 140.841 564.57 137.614 564.57 132.96H563.57H562.57C562.57 137.905 563.785 141.758 566.415 144.299L567.11 143.58ZM563.57 132.96H564.57V111.42H563.57H562.57V132.96H563.57ZM563.57 111.42V112.42H571.67V111.42V110.42H563.57V111.42ZM571.67 111.42H570.67V132.06H571.67H572.67V111.42H571.67ZM571.67 132.06H570.67C570.67 133.605 570.741 134.916 570.89 135.978C571.036 137.019 571.268 137.914 571.647 138.564L572.51 138.06L573.374 137.556C573.193 137.245 573.005 136.66 572.871 135.701C572.739 134.764 572.67 133.554 572.67 132.06H571.67ZM572.51 138.06L571.641 138.553C572.757 140.52 575.108 141.28 578.09 141.28V140.28V139.28C575.312 139.28 573.944 138.56 573.38 137.566L572.51 138.06ZM578.09 140.28V141.28C580.877 141.28 583.227 140.953 585.099 140.257L584.75 139.32L584.402 138.383C582.833 138.966 580.743 139.28 578.09 139.28V140.28ZM584.75 139.32H585.75V111.42H584.75H583.75V139.32H584.75ZM584.75 111.42V112.42H592.85V111.42V110.42H584.75V111.42ZM634.966 97.4998H635.966V96.4998H634.966V97.4998ZM634.966 143.4L635.413 144.294L635.966 144.018V143.4H634.966ZM608.446 142.08L607.694 142.739V142.739L608.446 142.08ZM607.246 117.42L606.407 116.876L606.406 116.877L607.246 117.42ZM626.866 111.6L626.606 112.565L627.866 112.905V111.6H626.866ZM626.866 97.4998V96.4998H625.866V97.4998H626.866ZM614.506 120.06L615.295 120.674V120.674L614.506 120.06ZM612.406 128.34H611.406L611.406 128.35L612.406 128.34ZM626.866 139.32L627.136 140.283L627.866 140.078V139.32H626.866ZM626.866 118.44H627.866V117.874L627.381 117.582L626.866 118.44ZM634.966 97.4998H633.966V143.4H634.966H635.966V97.4998H634.966ZM634.966 143.4L634.519 142.505C629.933 144.798 625.166 145.94 620.206 145.94V146.94V147.94C625.486 147.94 630.559 146.721 635.413 144.294L634.966 143.4ZM620.206 146.94V145.94C615.443 145.94 611.817 144.408 609.198 141.421L608.446 142.08L607.694 142.739C610.755 146.231 614.969 147.94 620.206 147.94V146.94ZM608.446 142.08L609.198 141.421C606.563 138.414 605.186 134.216 605.186 128.7H604.186H603.186C603.186 134.544 604.649 139.265 607.694 142.739L608.446 142.08ZM604.186 128.7H605.186C605.186 124.501 606.166 120.936 608.086 117.962L607.246 117.42L606.406 116.877C604.246 120.223 603.186 124.179 603.186 128.7H604.186ZM607.246 117.42L608.085 117.964C610.753 113.85 614.852 111.76 620.566 111.76V110.76V109.76C614.281 109.76 609.499 112.109 606.407 116.876L607.246 117.42ZM620.566 110.76V111.76C622.597 111.76 624.61 112.028 626.606 112.565L626.866 111.6L627.126 110.634C624.963 110.052 622.775 109.76 620.566 109.76V110.76ZM626.866 111.6H627.866V97.4998H626.866H625.866V111.6H626.866ZM626.866 97.4998V98.4998H634.966V97.4998V96.4998H626.866V97.4998ZM621.106 117.36V116.36C617.903 116.36 615.363 117.33 613.717 119.446L614.506 120.06L615.295 120.674C616.45 119.19 618.309 118.36 621.106 118.36V117.36ZM614.506 120.06L613.717 119.446C612.118 121.502 611.406 124.527 611.406 128.34H612.406H613.406C613.406 124.713 614.094 122.218 615.295 120.674L614.506 120.06ZM612.406 128.34L611.406 128.35C611.447 132.408 612.136 135.622 613.613 137.848C615.137 140.145 617.426 141.28 620.326 141.28V140.28V139.28C618.026 139.28 616.395 138.425 615.279 136.742C614.116 134.988 613.445 132.232 613.406 128.33L612.406 128.34ZM620.326 140.28V141.28C622.509 141.28 624.78 140.944 627.136 140.283L626.866 139.32L626.596 138.357C624.392 138.976 622.303 139.28 620.326 139.28V140.28ZM626.866 139.32H627.866V118.44H626.866H625.866V139.32H626.866ZM626.866 118.44L627.381 117.582C625.94 116.718 623.792 116.36 621.106 116.36V117.36V118.36C623.7 118.36 625.392 118.722 626.352 119.297L626.866 118.44ZM656.733 101.04H657.733V101.028L657.733 101.015L656.733 101.04ZM656.733 106.8V107.8H657.733V106.8H656.733ZM648.033 106.8H647.033V107.8H648.033V106.8ZM648.033 98.5198V97.5198H647.033V98.5198H648.033ZM653.853 98.5198L653.875 97.52L653.864 97.5198H653.853V98.5198ZM656.433 146.22V147.22H657.433V146.22H656.433ZM648.333 146.22H647.333V147.22H648.333V146.22ZM648.333 111.42V110.42H647.333V111.42H648.333ZM656.433 111.42H657.433V110.42H656.433V111.42ZM656.733 101.04H655.733V106.8H656.733H657.733V101.04H656.733ZM656.733 106.8V105.8H648.033V106.8V107.8H656.733V106.8ZM648.033 106.8H649.033V98.5198H648.033H647.033V106.8H648.033ZM648.033 98.5198V99.5198H653.853V98.5198V97.5198H648.033V98.5198ZM653.853 98.5198L653.832 99.5195C654.645 99.5368 655.089 99.7258 655.325 99.9323C655.538 100.119 655.719 100.439 655.734 101.064L656.733 101.04L657.733 101.015C657.708 100 657.389 99.0808 656.642 98.4272C655.918 97.7938 654.942 97.5427 653.875 97.52L653.853 98.5198ZM656.433 146.22V145.22H648.333V146.22V147.22H656.433V146.22ZM648.333 146.22H649.333V111.42H648.333H647.333V146.22H648.333ZM648.333 111.42V112.42H656.433V111.42V110.42H648.333V111.42ZM656.433 111.42H655.433V146.22H656.433H657.433V111.42H656.433ZM698.306 139.98L699.159 140.502L699.16 140.5L698.306 139.98ZM672.806 142.14L672.071 142.818L672.072 142.819L672.806 142.14ZM671.366 117.78L672.219 118.302L672.221 118.299L671.366 117.78ZM696.926 115.5L697.66 114.821V114.821L696.926 115.5ZM691.046 120.06L690.231 120.639L690.237 120.648L691.046 120.06ZM678.686 120.18L679.504 120.754V120.754L678.686 120.18ZM678.686 137.58L679.501 137L679.498 136.997L678.686 137.58ZM690.986 137.58L690.173 136.997L690.171 137L690.986 137.58ZM701.306 128.46H700.306C700.306 132.703 699.343 136.358 697.452 139.459L698.306 139.98L699.16 140.5C701.269 137.042 702.306 133.016 702.306 128.46H701.306ZM698.306 139.98L697.453 139.458C694.822 143.757 690.673 145.94 684.806 145.94V146.94V147.94C691.259 147.94 696.11 145.483 699.159 140.502L698.306 139.98ZM684.806 146.94V145.94C679.997 145.94 676.281 144.424 673.54 141.461L672.806 142.14L672.072 142.819C675.251 146.256 679.535 147.94 684.806 147.94V146.94ZM672.806 142.14L673.54 141.461C670.833 138.531 669.426 134.497 669.426 129.24H668.426H667.426C667.426 134.862 668.939 139.428 672.071 142.818L672.806 142.14ZM668.426 129.24H669.426C669.426 124.95 670.371 121.318 672.219 118.302L671.366 117.78L670.513 117.257C668.44 120.641 667.426 124.65 667.426 129.24H668.426ZM671.366 117.78L672.221 118.299C674.853 113.962 679.02 111.76 684.926 111.76V110.76V109.76C678.432 109.76 673.559 112.238 670.511 117.261L671.366 117.78ZM684.926 110.76V111.76C689.782 111.76 693.495 113.26 696.191 116.178L696.926 115.5L697.66 114.821C694.517 111.419 690.23 109.76 684.926 109.76V110.76ZM696.926 115.5L696.191 116.178C698.898 119.107 700.306 123.16 700.306 128.46H701.306H702.306C702.306 122.8 700.794 118.212 697.66 114.821L696.926 115.5ZM692.966 128.82H693.966C693.966 124.687 693.328 121.497 691.855 119.472L691.046 120.06L690.237 120.648C691.324 122.142 691.966 124.792 691.966 128.82H692.966ZM691.046 120.06L691.861 119.48C690.336 117.335 687.875 116.36 684.746 116.36V117.36V118.36C687.457 118.36 689.196 119.184 690.231 120.639L691.046 120.06ZM684.746 117.36V116.36C681.769 116.36 679.411 117.407 677.868 119.605L678.686 120.18L679.504 120.754C680.601 119.193 682.283 118.36 684.746 118.36V117.36ZM678.686 120.18L677.868 119.605C676.373 121.734 675.706 124.861 675.706 128.82H676.706H677.706C677.706 125.018 678.359 122.386 679.504 120.754L678.686 120.18ZM676.706 128.82H675.706C675.706 132.887 676.369 136.066 677.873 138.163L678.686 137.58L679.498 136.997C678.363 135.414 677.706 132.752 677.706 128.82H676.706ZM678.686 137.58L677.871 138.159C679.391 140.297 681.805 141.28 684.866 141.28V140.28V139.28C682.247 139.28 680.541 138.463 679.501 137L678.686 137.58ZM684.866 140.28V141.28C687.893 141.28 690.284 140.293 691.801 138.159L690.986 137.58L690.171 137C689.128 138.466 687.439 139.28 684.866 139.28V140.28ZM690.986 137.58L691.798 138.163C693.303 136.066 693.966 132.887 693.966 128.82H692.966H691.966C691.966 132.752 691.309 135.414 690.173 136.997L690.986 137.58ZM713.335 99.9598L713.268 98.962L712.335 99.0242V99.9598H713.335ZM742.795 103.26L742.272 104.112L742.274 104.113L742.795 103.26ZM742.495 143.04L741.974 142.186L741.971 142.188L742.495 143.04ZM717.655 146.4L717.758 145.405L717.729 145.402L717.7 145.401L717.655 146.4ZM714.175 145.5L714.855 144.767V144.767L714.175 145.5ZM738.175 109.8L737.555 110.585L737.56 110.589L738.175 109.8ZM726.835 106.86L726.865 105.86L726.861 105.86L726.835 106.86ZM721.975 106.92L721.929 105.921L720.975 105.965V106.92H721.975ZM721.975 139.14H720.975V140.097L721.932 140.139L721.975 139.14ZM727.495 139.2L727.517 140.2L727.519 140.199L727.495 139.2ZM738.655 135.78L737.981 135.041L737.98 135.042L738.655 135.78ZM713.335 142.44H714.335V99.9598H713.335H712.335V142.44H713.335ZM713.335 99.9598L713.402 100.958C717.579 100.679 721.757 100.54 725.935 100.54V99.5398V98.5398C721.713 98.5398 717.491 98.6805 713.268 98.962L713.335 99.9598ZM725.935 99.5398V100.54C733.039 100.54 738.451 101.766 742.272 104.112L742.795 103.26L743.318 102.408C739.059 99.7931 733.231 98.5398 725.935 98.5398V99.5398ZM742.795 103.26L742.274 104.113C747.843 107.515 750.735 113.543 750.735 122.52H751.735H752.735C752.735 113.096 749.667 106.285 743.316 102.406L742.795 103.26ZM751.735 122.52H750.735C750.735 132.237 747.73 138.673 741.974 142.186L742.495 143.04L743.016 143.893C749.58 139.887 752.735 132.643 752.735 122.52H751.735ZM742.495 143.04L741.971 142.188C738.354 144.411 733.125 145.58 726.175 145.58V146.58V147.58C733.305 147.58 738.956 146.389 743.019 143.892L742.495 143.04ZM726.175 146.58V145.58C721.637 145.58 718.855 145.519 717.758 145.405L717.655 146.4L717.552 147.394C718.775 147.521 721.673 147.58 726.175 147.58V146.58ZM717.655 146.4L717.7 145.401C716.861 145.363 716.205 145.273 715.715 145.147C715.214 145.017 714.964 144.868 714.855 144.767L714.175 145.5L713.495 146.233C713.946 146.652 714.557 146.913 715.215 147.083C715.885 147.256 716.69 147.357 717.61 147.399L717.655 146.4ZM714.175 145.5L714.855 144.767C714.626 144.554 714.335 143.924 714.335 142.44H713.335H712.335C712.335 143.996 712.604 145.405 713.495 146.233L714.175 145.5ZM742.795 122.94H743.795C743.795 116.464 742.232 111.694 738.79 109.011L738.175 109.8L737.56 110.589C740.278 112.706 741.795 116.695 741.795 122.94H742.795ZM738.175 109.8L738.795 109.015C736.256 107.011 732.206 106.022 726.865 105.86L726.835 106.86L726.805 107.859C732.024 108.017 735.534 108.989 737.555 110.585L738.175 109.8ZM726.835 106.86L726.861 105.86C725.314 105.819 723.67 105.84 721.929 105.921L721.975 106.92L722.021 107.919C723.72 107.84 725.316 107.82 726.809 107.859L726.835 106.86ZM721.975 106.92H720.975V139.14H721.975H722.975V106.92H721.975ZM721.975 139.14L721.932 140.139C723.793 140.22 725.655 140.24 727.517 140.2L727.495 139.2L727.473 138.2C725.655 138.24 723.837 138.22 722.018 138.141L721.975 139.14ZM727.495 139.2L727.519 140.199C732.706 140.077 736.713 138.913 739.33 136.517L738.655 135.78L737.98 135.042C735.877 136.966 732.444 138.083 727.471 138.2L727.495 139.2ZM738.655 135.78L739.329 136.518C742.395 133.719 743.795 129.093 743.795 122.94H742.795H741.795C741.795 128.867 740.435 132.8 737.981 135.041L738.655 135.78ZM772.458 101.04H773.458V101.028L773.458 101.015L772.458 101.04ZM772.458 106.8V107.8H773.458V106.8H772.458ZM763.758 106.8H762.758V107.8H763.758V106.8ZM763.758 98.5198V97.5198H762.758V98.5198H763.758ZM769.578 98.5198L769.6 97.52L769.589 97.5198H769.578V98.5198ZM772.158 146.22V147.22H773.158V146.22H772.158ZM764.058 146.22H763.058V147.22H764.058V146.22ZM764.058 111.42V110.42H763.058V111.42H764.058ZM772.158 111.42H773.158V110.42H772.158V111.42ZM772.458 101.04H771.458V106.8H772.458H773.458V101.04H772.458ZM772.458 106.8V105.8H763.758V106.8V107.8H772.458V106.8ZM763.758 106.8H764.758V98.5198H763.758H762.758V106.8H763.758ZM763.758 98.5198V99.5198H769.578V98.5198V97.5198H763.758V98.5198ZM769.578 98.5198L769.557 99.5195C770.37 99.5368 770.814 99.7258 771.05 99.9323C771.263 100.119 771.443 100.439 771.459 101.064L772.458 101.04L773.458 101.015C773.433 100 773.114 99.0808 772.367 98.4272C771.643 97.7938 770.667 97.5427 769.6 97.52L769.578 98.5198ZM772.158 146.22V145.22H764.058V146.22V147.22H772.158V146.22ZM764.058 146.22H765.058V111.42H764.058H763.058V146.22H764.058ZM764.058 111.42V112.42H772.158V111.42V110.42H764.058V111.42ZM772.158 111.42H771.158V146.22H772.158H773.158V111.42H772.158ZM780.071 99.8398V98.8398H779.071V99.8398H780.071ZM816.491 99.8398L817.471 100.041L817.717 98.8398H816.491V99.8398ZM814.991 107.16V108.16H815.807L815.971 107.361L814.991 107.16ZM802.211 107.16V106.16H801.211V107.16H802.211ZM802.211 146.22V147.22H803.211V146.22H802.211ZM793.571 146.22H792.571V147.22H793.571V146.22ZM793.571 107.16H794.571V106.16H793.571V107.16ZM780.071 107.16H779.071V108.16H780.071V107.16ZM780.071 99.8398V100.84H816.491V99.8398V98.8398H780.071V99.8398ZM816.491 99.8398L815.511 99.639L814.011 106.959L814.991 107.16L815.971 107.361L817.471 100.041L816.491 99.8398ZM814.991 107.16V106.16H802.211V107.16V108.16H814.991V107.16ZM802.211 107.16H801.211V146.22H802.211H803.211V107.16H802.211ZM802.211 146.22V145.22H793.571V146.22V147.22H802.211V146.22ZM793.571 146.22H794.571V107.16H793.571H792.571V146.22H793.571ZM793.571 107.16V106.16H780.071V107.16V108.16H793.571V107.16ZM780.071 107.16H781.071V99.8398H780.071H779.071V107.16H780.071Z" fill="white" mask="url(#path-4-outside-1_3115_652)"/>
</svg>
